<?xml version="1.0" standalone="no"?>
<!DOCTYPE svg PUBLIC "-//W3C//DTD SVG 20010904//EN"
 "http://www.w3.org/TR/2001/REC-SVG-20010904/DTD/svg10.dtd">
<svg version="1.0" xmlns="http://www.w3.org/2000/svg"
 width="2218.000000pt" height="352.000000pt" viewBox="0 0 2218.000000 352.000000"
 preserveAspectRatio="xMidYMid meet">
<metadata>
Created by potrace 1.16, written by Peter Selinger 2001-2019
</metadata>
<g transform="translate(0.000000,352.000000) scale(0.100000,-0.100000)"
fill="#7c69ef" stroke="none">
<path d="M73 3449 l-73 -71 0 -1689 0 -1689 1647 0 1648 0 1563 1563 1564
1562 -4 -63 -4 -63 -1490 -1490 c-819 -820 -1498 -1494 -1509 -1499 -11 -5
970 -9 2228 -9 2134 -1 2247 0 2247 17 0 9 751 768 1738 1755 l1739 1739 46
-7 c26 -4 47 -10 47 -14 0 -3 -784 -790 -1742 -1748 l-1743 -1743 220 0 220 0
1716 1716 1715 1715 48 -12 48 -12 -1703 -1703 -1704 -1704 225 0 225 0 1645
1645 c905 905 1648 1645 1651 1645 4 0 24 -7 44 -16 l38 -16 -1629 -1629
-1629 -1629 220 0 220 0 1555 1555 c855 855 1557 1555 1560 1555 3 0 20 -9 39
-21 l34 -21 -1534 -1534 -1534 -1534 225 0 225 0 1444 1444 1444 1444 34 -26
34 -25 -1418 -1419 -1418 -1418 220 0 220 0 1316 1316 1316 1316 32 -28 33
-27 -1289 -1289 -1288 -1288 225 0 225 0 1165 1165 c641 641 1168 1165 1172
1165 4 0 17 -14 29 -31 l22 -31 -1134 -1134 -1134 -1134 220 0 220 0 1001
1001 c600 600 1006 999 1013 995 6 -4 18 -21 27 -38 l16 -31 -963 -963 -964
-964 220 0 220 0 815 815 c448 448 818 815 821 815 3 0 13 -17 23 -37 l17 -37
-778 -778 -778 -778 220 0 220 0 613 612 c650 650 623 627 638 549 7 -33 3
-37 -557 -597 l-564 -564 220 0 220 0 381 381 382 382 7 -53 7 -53 -328 -328
-329 -329 225 0 225 0 113 112 114 113 -4 -63 c-4 -59 -7 -65 -53 -112 l-49
-50 2284 0 2285 0 -1503 1503 -1502 1502 0 60 0 60 1563 -1563 1562 -1562
1648 0 1647 0 0 1688 0 1688 -73 72 -72 72 -225 0 -225 0 294 -294 293 -293
-7 -53 -7 -53 -347 347 -346 346 -225 0 -225 0 538 -538 539 -539 -12 -43 -12
-43 -581 581 -582 582 -225 0 -225 0 749 -749 748 -748 -12 -37 c-6 -19 -15
-38 -19 -40 -4 -3 -362 350 -797 785 l-789 789 -225 0 -225 0 942 -942 941
-943 -16 -32 c-8 -18 -20 -33 -26 -33 -6 0 -450 439 -986 975 l-975 975 -220
0 -220 0 1113 -1113 1112 -1112 -27 -33 -28 -33 -1145 1146 -1145 1145 -225 0
-225 0 1268 -1268 1268 -1268 -31 -29 -31 -29 -1297 1297 -1297 1297 -220 0
-220 0 1398 -1398 c768 -768 1397 -1400 1397 -1404 0 -4 -14 -17 -31 -29 l-31
-22 -1427 1427 -1426 1426 -225 0 -225 0 1519 -1519 1519 -1519 -34 -21 c-19
-12 -36 -21 -39 -21 -3 0 -698 693 -1545 1540 l-1540 1540 -220 0 -220 0 1613
-1613 c886 -886 1612 -1615 1612 -1619 0 -4 -17 -15 -37 -23 l-37 -16 -1636
1636 -1635 1635 -225 0 -225 0 1694 -1694 c931 -931 1689 -1696 1684 -1699 -6
-4 -27 -9 -49 -12 l-39 -6 -1705 1705 -1705 1706 -225 0 -225 0 1744 -1744
c1330 -1330 1739 -1745 1726 -1750 -9 -3 -31 -6 -48 -6 -29 0 -192 160 -1782
1750 l-1750 1750 -2445 0 -2445 0 -1515 -1515 c-833 -833 -1517 -1515 -1520
-1515 -3 0 -4 26 -2 58 l4 59 1451 1451 1452 1451 55 4 c30 2 -967 4 -2215 5
l-2270 2 -1750 -1750 c-1229 -1229 -1756 -1750 -1771 -1750 -12 0 -36 3 -54 6
-32 7 -18 21 1711 1750 l1744 1744 -220 0 -220 0 -1706 -1706 -1706 -1706 -34
7 c-20 4 -42 11 -50 16 -11 6 386 408 1676 1699 l1690 1690 -220 0 -220 0
-1636 -1636 -1636 -1636 -34 17 c-19 10 -36 19 -39 22 -2 2 722 730 1610 1618
l1615 1615 -220 0 -220 0 -1541 -1541 -1541 -1541 -31 16 c-17 9 -34 21 -38
27 -4 7 600 618 1507 1525 l1514 1514 -220 0 -220 0 -1426 -1426 -1427 -1427
-31 22 c-17 12 -31 25 -31 29 0 4 629 636 1397 1404 l1398 1398 -225 0 -225 0
-1296 -1296 -1296 -1296 -27 33 -28 32 1264 1264 1263 1263 -220 0 -220 0
-1145 -1145 -1145 -1145 -27 32 -27 33 1112 1113 1112 1112 -225 0 -225 0
-974 -974 c-536 -536 -978 -973 -983 -970 -4 3 -15 19 -24 36 l-16 31 938 938
939 939 -220 0 -220 0 -792 -792 -791 -791 -16 38 c-9 20 -16 40 -16 44 0 3
336 342 747 753 l748 748 -225 0 -225 0 -581 -581 -581 -581 -12 48 -12 48
533 533 533 533 -220 0 -220 0 -346 -346 -346 -346 -7 53 -7 53 293 293 293
293 -225 0 -225 0 -72 -71z m9052 -1169 c-616 -616 -1121 -1116 -1123 -1111
-2 5 6 40 17 78 l21 68 1023 1023 1023 1023 75 23 c41 13 76 21 79 19 2 -2
-500 -508 -1115 -1123z m-2810 113 l-17 -68 -1101 -1102 -1100 -1101 -63 -16
c-35 -9 -69 -16 -76 -16 -7 0 522 535 1177 1190 654 654 1191 1187 1194 1185
2 -3 -4 -35 -14 -72z m11900 -2302 c-3 -2 -33 4 -68 13 l-63 17 -1101 1102
c-1094 1095 -1101 1102 -1117 1159 -9 31 -16 62 -16 70 0 7 533 -520 1185
-1172 651 -651 1182 -1186 1180 -1189z m-12304 1380 c-21 -38 -186 -259 -255
-340 -187 -222 -496 -493 -700 -614 -17 -10 192 204 464 477 272 273 496 496
498 496 1 0 -2 -8 -7 -19z m11324 -959 c-2 -2 -36 19 -77 46 -310 210 -602
500 -823 816 -36 52 -65 98 -65 102 0 5 218 -209 485 -476 266 -266 483 -486
480 -488z"/>
</g>
</svg>
